<?xml version="1.0" encoding="utf-8"?>
<!-- Generator: Adobe Illustrator 21.1.0, SVG Export Plug-In . SVG Version: 6.00 Build 0)  -->
<svg version="1.1" id="Capa_1" xmlns="http://www.w3.org/2000/svg" xmlns:xlink="http://www.w3.org/1999/xlink" x="0px" y="0px"
	 viewBox="0 0 55 55" style="enable-background:new 0 0 55 55;" xml:space="preserve">
<style type="text/css">
	.st0{fill:#666666;}
</style>
<path class="st0" d="M49,0c-3.3,0-6,2.7-6,6c0,1,0.3,2,0.7,2.9l-9.8,9.8C32.5,17.6,30.8,17,29,17s-3.5,0.6-4.9,1.7L16.4,11
	c0.4-0.6,0.6-1.3,0.6-2c0-2.2-1.8-4-4-4S9,6.8,9,9s1.8,4,4,4c0.7,0,1.4-0.2,2-0.6l7.7,7.7C21.6,21.5,21,23.2,21,25s0.6,3.5,1.7,4.9
	L10,42.6C9,41.6,7.5,41,6,41c-3.3,0-6,2.7-6,6s2.7,6,6,6s6-2.7,6-6c0-1-0.3-2-0.7-2.9l12.8-12.8c1.1,0.9,2.4,1.4,3.9,1.6v10.2
	c-2.8,0.5-5,2.9-5,5.9c0,3.3,2.7,6,6,6s6-2.7,6-6c0-3-2.2-5.4-5-5.9V32.9c1.5-0.2,2.8-0.8,3.9-1.6l7.7,7.7c-0.4,0.6-0.6,1.3-0.6,2
	c0,2.2,1.8,4,4,4s4-1.8,4-4s-1.8-4-4-4c-0.7,0-1.4,0.2-2,0.6l-7.7-7.7c1.1-1.4,1.7-3.1,1.7-4.9s-0.6-3.5-1.7-4.9l9.7-9.7
	c1.1,1,2.5,1.6,4,1.6c3.3,0,6-2.7,6-6S52.3,0,49,0z"/>
</svg>
